<svg width="950" height="505" viewBox="0 0 950 505" fill="none" xmlns="http://www.w3.org/2000/svg">
<g clip-path="url(#clip0_83_58)">
<rect width="950" height="505" fill="white"/>
<g filter="url(#filter0_f_83_58)">
<path d="M709.478 392.091C741.185 283.351 484.559 253.685 608.682 185.679C748.012 98.3986 738.757 158.009 856.334 153.414C922.716 183.186 915.151 216.389 875.296 305.253C849.497 362.776 728.671 497.566 709.478 392.091Z" fill="#278700"/>
</g>
<g filter="url(#filter1_f_83_58)">
<path d="M199.092 254.385C94.2288 297.388 10.9305 187.84 92.7742 101.594C182.978 -4.53674 185.183 48.3433 271.824 17.5972C325.67 27.8033 325.108 57.8072 309.039 142.585C298.638 197.463 335.36 228.803 199.092 254.385Z" fill="#278700"/>
</g>
<g filter="url(#filter2_f_83_58)">
<path d="M473.481 504.892C567.98 600.38 432.031 742.702 305.23 663.531C151.553 578.608 217.545 564.843 159.448 468.275C160.2 402.083 198.05 396.429 308.247 397.68C379.579 398.489 436.931 397.703 473.481 504.892Z" fill="#D4A52A"/>
</g>
<circle cx="869" cy="81" r="44" stroke="#524747" stroke-opacity="0.1" stroke-width="2"/>
<circle cx="869" cy="81" r="74" stroke="#524747" stroke-opacity="0.08" stroke-width="2"/>
<circle cx="869" cy="81" r="104" stroke="#524747" stroke-opacity="0.06" stroke-width="2"/>
<circle cx="869" cy="81" r="134" stroke="#524747" stroke-opacity="0.04" stroke-width="2"/>
<circle cx="869" cy="81" r="164" stroke="#524747" stroke-opacity="0.02" stroke-width="2"/>
</g>
<defs>
<filter id="filter0_f_83_58" x="374.54" y="-62.2161" width="731.229" height="693.452" filterUnits="userSpaceOnUse" color-interpolation-filters="sRGB">
<feFlood flood-opacity="0" result="BackgroundImageFix"/>
<feBlend mode="normal" in="SourceGraphic" in2="BackgroundImageFix" result="shape"/>
<feGaussianBlur stdDeviation="100" result="effect1_foregroundBlur_83_58"/>
</filter>
<filter id="filter1_f_83_58" x="-98.2874" y="-140.403" width="574.838" height="562.444" filterUnits="userSpaceOnUse" color-interpolation-filters="sRGB">
<feFlood flood-opacity="0" result="BackgroundImageFix"/>
<feBlend mode="normal" in="SourceGraphic" in2="BackgroundImageFix" result="shape"/>
<feGaussianBlur stdDeviation="79" result="effect1_foregroundBlur_83_58"/>
</filter>
<filter id="filter2_f_83_58" x="-50.5518" y="187.537" width="765.586" height="709.072" filterUnits="userSpaceOnUse" color-interpolation-filters="sRGB">
<feFlood flood-opacity="0" result="BackgroundImageFix"/>
<feBlend mode="normal" in="SourceGraphic" in2="BackgroundImageFix" result="shape"/>
<feGaussianBlur stdDeviation="105" result="effect1_foregroundBlur_83_58"/>
</filter>
<clipPath id="clip0_83_58">
<rect width="950" height="505" fill="white"/>
</clipPath>
</defs>
</svg>
